<?xml version="1.0" standalone="no"?>
<!DOCTYPE svg PUBLIC "-//W3C//DTD SVG 20010904//EN"
 "http://www.w3.org/TR/2001/REC-SVG-20010904/DTD/svg10.dtd">
<svg version="1.0" xmlns="http://www.w3.org/2000/svg"
 width="574.000000pt" height="574.000000pt" viewBox="0 0 574.000000 574.000000"
 preserveAspectRatio="xMidYMid meet">
<metadata>
Created by potrace 1.11, written by Peter Selinger 2001-2013
</metadata>
<g transform="translate(0.000000,574.000000) scale(0.100000,-0.100000)"
fill="#000000" stroke="none">
<path d="M1640 5495 c-61 -34 -115 -57 -241 -100 -167 -57 -274 -109 -459
-223 -129 -79 -145 -91 -142 -113 8 -49 15 -49 84 -3 37 24 72 44 78 44 5 0
10 5 10 12 0 6 3 8 7 5 3 -4 12 -2 18 3 15 12 21 6 64 -68 17 -29 26 -50 20
-47 -6 4 -5 -2 3 -14 7 -12 16 -21 21 -21 4 0 5 -4 2 -10 -3 -5 10 -44 29 -86
20 -42 36 -82 36 -90 0 -8 4 -14 8 -14 4 0 16 -24 27 -52 10 -29 22 -59 28
-65 5 -7 6 -13 1 -13 -5 0 -4 -4 1 -8 12 -8 23 -27 87 -149 26 -51 48 -102 48
-113 0 -11 4 -20 8 -20 5 0 17 -17 28 -37 10 -21 27 -50 37 -65 10 -16 15 -28
10 -28 -4 0 -3 -4 2 -8 18 -13 86 -154 81 -168 -3 -7 3 -16 12 -19 9 -3 33
-38 53 -78 20 -40 53 -103 73 -140 l37 -69 -17 -36 c-9 -21 -19 -40 -21 -44
-2 -5 0 -8 6 -8 6 0 14 15 19 33 4 17 12 31 18 31 10 -1 185 -344 175 -344 -3
0 -1 -4 4 -8 16 -10 100 -190 97 -204 -1 -5 2 -8 8 -8 5 0 10 -5 10 -11 0 -17
173 -365 219 -441 23 -37 41 -69 41 -72 0 -2 16 -30 35 -62 32 -53 34 -59 19
-75 -10 -12 -12 -19 -4 -24 6 -3 9 -1 8 6 -2 6 2 13 8 16 10 3 124 -203 124
-225 0 -4 -30 -7 -67 -6 -51 1 -76 -4 -98 -17 -16 -11 -26 -19 -22 -19 4 0 2
-6 -5 -14 -7 -7 -19 -11 -25 -9 -9 4 -7 13 8 34 11 16 22 37 24 46 2 10 9 32
15 48 6 17 14 39 16 50 2 11 6 32 10 47 3 18 1 28 -6 28 -6 0 -9 -4 -5 -9 3
-5 1 -12 -5 -16 -6 -4 -8 -11 -5 -16 4 -5 2 -9 -3 -9 -5 0 -9 -6 -9 -12 0 -17
-44 -110 -59 -126 -20 -20 -27 -15 -70 52 l-41 64 18 46 c9 25 13 46 9 46 -8
0 -21 -24 -26 -48 -5 -25 -13 -25 -24 -1 -6 13 -17 35 -26 49 -13 23 -13 50 0
105 2 11 5 20 6 20 1 0 3 7 5 16 1 9 6 31 10 48 4 20 3 31 -4 31 -6 0 -11 -7
-11 -15 0 -8 0 -17 0 -20 0 -3 -9 -25 -20 -49 -10 -24 -16 -47 -12 -51 3 -3
-1 -3 -9 0 -9 3 -22 24 -29 46 -7 21 -16 39 -20 39 -15 0 4 134 23 158 5 6 7
12 3 12 -3 0 -2 10 3 23 12 30 23 103 16 95 -4 -3 -9 -21 -12 -40 -3 -18 -8
-35 -11 -38 -4 -3 -8 -12 -10 -21 -1 -9 -11 -40 -21 -70 l-19 -54 -22 50 c-24
56 -25 64 -16 120 6 38 5 39 -7 13 -9 -20 -16 -25 -27 -18 -8 6 -12 10 -8 10
3 0 -9 37 -28 82 l-35 82 31 57 c36 68 62 139 51 139 -4 0 -13 -11 -19 -25 -6
-14 -16 -25 -22 -25 -5 0 -9 -3 -8 -7 1 -5 -8 -25 -21 -45 -25 -42 -37 -38
-59 17 -6 17 -17 44 -23 60 -7 17 -13 32 -14 35 -1 3 -5 13 -9 23 -5 10 2 53
19 110 36 123 39 138 20 97 -9 -19 -18 -39 -19 -45 -1 -5 -4 -14 -7 -20 -4 -5
-12 -27 -18 -47 -10 -30 -15 -35 -25 -25 -11 11 -26 41 -25 52 0 3 -8 18 -17
34 -15 25 -15 31 -1 57 8 16 18 45 23 64 11 50 11 50 14 53 9 11 5 37 -6 37
-8 0 -14 -9 -14 -20 0 -11 -5 -20 -10 -20 -6 0 -9 -3 -8 -7 1 -5 -5 -21 -12
-38 -7 -16 -12 -34 -11 -40 6 -25 -20 16 -62 97 -49 96 -62 134 -47 143 5 3
14 24 20 46 6 22 14 47 17 56 4 11 2 14 -8 11 -8 -3 -14 -9 -15 -14 0 -5 -6
-28 -13 -52 -14 -51 -25 -47 -62 25 -13 27 -27 51 -32 54 -12 9 -18 51 -8 63
14 18 52 128 42 122 -5 -4 -12 -20 -16 -36 -4 -17 -11 -30 -16 -30 -5 0 -11
-11 -15 -25 -7 -29 -30 -33 -38 -7 -3 9 -26 53 -51 96 l-44 78 28 42 c15 22
34 52 41 66 l13 25 -22 -19 c-11 -11 -19 -21 -17 -24 3 -2 -8 -18 -24 -35 -16
-17 -31 -29 -33 -27 -12 14 -87 168 -87 180 0 7 -3 10 -7 7 -6 -7 -53 84 -58
112 -1 9 2 27 7 41 9 24 13 36 22 80 3 11 8 25 12 32 4 7 3 8 -5 4 -6 -4 -21
-30 -33 -57 -12 -27 -25 -49 -28 -49 -3 0 -22 35 -42 78 l-36 77 19 36 c10 20
15 39 12 43 -4 3 0 6 7 6 7 0 10 3 7 7 -4 3 -2 12 4 20 8 9 8 13 1 13 -6 0
-13 -8 -16 -18 -4 -10 -16 -32 -29 -49 l-22 -31 -20 44 c-11 24 -22 44 -25 44
-3 0 -11 13 -18 29 -12 26 -11 35 8 71 14 28 17 41 8 37 -7 -2 -12 -10 -10
-16 1 -6 -5 -14 -13 -17 -8 -3 -12 -10 -9 -15 3 -5 -2 -9 -10 -9 -9 0 -16 6
-16 14 0 8 -7 22 -16 30 -14 14 -12 20 14 58 37 55 49 81 22 46 -61 -78 -57
-75 -74 -53 -28 36 -17 9 43 -112 33 -65 91 -183 129 -263 143 -300 179 -371
295 -585 146 -268 243 -467 332 -685 37 -91 73 -178 80 -195 7 -16 40 -100 75
-185 90 -224 246 -536 338 -675 76 -117 162 -215 188 -215 7 0 14 -4 16 -8 2
-5 37 -30 78 -57 41 -26 105 -68 142 -92 37 -23 72 -43 77 -43 6 0 11 -5 11
-11 0 -5 4 -8 9 -5 5 4 11 3 13 -2 4 -9 102 -72 113 -72 5 0 40 -19 79 -43 39
-24 104 -60 144 -81 40 -21 90 -55 110 -77 27 -27 46 -38 63 -37 l24 2 2 150
c3 214 10 447 14 450 2 2 38 20 79 41 140 70 290 194 326 270 12 26 27 37 73
54 32 11 67 21 79 21 l21 0 -20 -57 c-21 -61 -25 -113 -9 -113 5 0 38 24 72
53 86 71 139 112 166 126 l23 12 -16 -37 c-17 -42 -20 -90 -4 -99 26 -17 78
-5 130 28 95 60 95 60 91 23 -5 -44 35 -78 85 -72 61 8 147 93 156 156 3 21
13 27 53 37 72 19 76 14 48 -54 -32 -79 -40 -123 -23 -133 22 -14 47 8 63 58
9 27 29 60 44 75 26 25 141 87 160 87 5 0 15 7 22 15 11 13 7 15 -26 15 -34
-1 -68 -10 -126 -35 -14 -5 -17 -2 -15 21 2 33 -25 44 -51 21 -20 -17 -182
-34 -182 -19 0 6 -23 13 -50 17 -48 7 -53 5 -76 -21 -14 -16 -34 -45 -46 -64
-12 -19 -22 -36 -23 -38 -1 -1 -11 -4 -22 -6 -11 -3 -52 -20 -92 -40 -45 -23
-71 -32 -71 -24 0 7 11 37 25 66 30 64 31 78 7 91 -25 13 -84 -10 -138 -55
-25 -22 -55 -45 -65 -53 -19 -13 -19 -13 -8 15 7 16 18 34 23 39 6 6 12 21 13
35 0 14 14 55 31 90 113 249 116 260 72 260 -28 0 -50 -37 -140 -235 -69 -151
-56 -138 -147 -149 -22 -3 -53 -8 -67 -12 -16 -4 -26 -2 -26 5 0 5 -14 26 -30
45 -48 55 -110 71 -273 72 -75 0 -140 3 -143 6 -10 11 25 74 71 125 34 39 70
64 137 98 49 25 101 45 115 45 22 0 24 -3 18 -27 -16 -63 -16 -66 8 -59 12 3
25 6 28 6 10 0 37 62 42 98 5 28 1 34 -21 46 -80 39 -243 -23 -370 -141 -31
-29 -59 -53 -62 -53 -3 1 -15 22 -27 48 -12 26 -40 74 -61 107 -22 33 -43 71
-47 85 -4 14 -15 36 -25 50 -9 14 -67 129 -128 255 -124 255 -225 456 -277
555 -19 36 -55 108 -80 160 -44 93 -78 160 -96 190 -20 33 -89 179 -89 189 0
5 -5 11 -10 13 -6 2 -12 13 -14 25 -5 23 -25 65 -35 73 -6 5 -50 94 -107 215
-15 33 -34 66 -41 73 -7 7 -13 21 -13 31 0 17 14 18 193 18 171 0 389 7 532
17 28 2 95 7 150 10 55 4 123 9 150 11 55 5 183 13 315 21 47 2 222 6 390 8
168 3 415 8 550 12 368 11 816 9 898 -4 l33 -5 -7 -71 c-4 -39 -8 -79 -8 -88
0 -10 -3 -18 -6 -18 -3 0 -5 -21 -6 -48 0 -42 -9 -146 -19 -242 -2 -19 -7 -73
-10 -120 -3 -47 -7 -110 -10 -140 -6 -87 -18 -298 -20 -375 -1 -38 -3 -106 -5
-150 -1 -44 0 -96 4 -115 14 -80 14 -165 -2 -182 -25 -29 -21 -837 12 -2238 4
-146 9 -441 11 -656 l4 -391 -27 3 c-15 1 -45 5 -67 9 -154 22 -290 34 -460
40 -146 6 -438 5 -550 0 -49 -2 -153 -7 -230 -10 -77 -3 -165 -8 -195 -10 -30
-3 -109 -7 -175 -10 -66 -3 -145 -8 -175 -10 -30 -2 -100 -6 -155 -9 -55 -3
-140 -8 -190 -11 -49 -3 -180 -6 -290 -7 -182 0 -250 2 -445 18 -107 9 -241
15 -310 13 -163 -2 -200 -5 -200 -11 0 -5 -15 -8 -32 -8 l-33 0 0 497 c0 442
-7 759 -19 818 -2 11 -7 65 -11 120 -4 55 -8 111 -10 125 -4 23 -8 72 -20 225
-9 121 -17 300 -19 428 -2 149 -18 201 -30 100 -21 -169 -25 -401 -12 -648 13
-247 16 -318 21 -405 8 -137 3 -1142 -5 -1170 -5 -17 3 -130 11 -155 l9 -31
83 10 c45 5 186 8 312 7 480 -7 1177 -6 1345 3 224 11 428 11 760 1 452 -15
821 -11 985 10 133 17 198 27 211 32 12 4 14 336 14 2453 l0 2448 -32 5 c-18
3 -60 12 -93 21 -33 9 -80 18 -105 21 -25 2 -56 7 -70 10 -78 15 -410 21 -590
10 -149 -9 -436 -17 -530 -16 -358 7 -590 2 -805 -14 -156 -12 -198 -15 -280
-20 -49 -3 -104 -8 -121 -10 -78 -11 -416 -19 -609 -16 l-60 1 -39 73 c-53 98
-116 206 -141 242 -12 17 -29 46 -39 65 -10 20 -36 56 -57 80 -43 49 -43 39 3
-58 27 -57 30 -73 15 -71 -28 3 -80 -2 -74 -7 3 -3 25 -7 49 -9 24 -1 46 -3
49 -4 6 -1 15 -21 46 -97 3 -9 -22 -11 -92 -8 -63 3 -94 1 -90 -6 4 -6 9 -8
13 -6 15 9 175 -29 182 -44 4 -8 12 -25 18 -36 10 -21 9 -22 -56 -23 -37 -1
-88 -4 -113 -6 l-45 -4 -24 47 c-13 26 -24 49 -25 52 0 3 -4 11 -8 17 -5 9 -3
11 7 7 10 -4 14 0 12 12 -2 10 -9 20 -17 23 -16 5 -31 24 -51 61 -7 13 -21 32
-30 42 -26 26 -23 32 30 57 58 27 116 78 124 109 7 26 -6 28 -42 7z m-233
-192 c-3 -3 -11 -2 -17 2 -9 6 -9 10 1 16 14 8 27 -7 16 -18z m-78 -29 c-14
-18 -24 -11 -15 11 3 9 11 13 16 10 8 -5 7 -11 -1 -21z m-139 -54 c0 -5 -2
-10 -4 -10 -3 0 -8 5 -11 10 -3 6 -1 10 4 10 6 0 11 -4 11 -10z m252 -21 c-8
-28 -32 -37 -32 -13 0 14 30 47 37 40 1 -1 -1 -13 -5 -27z m-167 4 c-4 -10 -8
-23 -9 -29 -2 -15 -28 -46 -33 -40 -7 7 29 86 39 86 6 0 7 -8 3 -17z m275 -16
c0 -12 -61 -97 -70 -97 -4 0 4 24 18 53 14 30 32 54 39 54 7 0 13 -4 13 -10z
m-217 -64 c-31 -80 -93 -185 -93 -157 0 17 56 131 73 152 25 27 29 28 20 5z
m-198 -31 c-3 -3 -11 0 -18 7 -9 10 -8 11 6 5 10 -3 15 -9 12 -12z m484 -58
c1 -6 -23 -42 -51 -80 -29 -38 -62 -85 -72 -104 -11 -18 -26 -42 -35 -52 -9
-10 -16 -24 -16 -30 0 -6 -6 -13 -12 -15 -18 -6 -16 8 7 63 20 47 120 211 150
247 14 16 15 16 22 0 3 -10 7 -23 7 -29z m222 1 c70 -13 79 -18 94 -47 8 -17
15 -37 15 -45 0 -7 4 -13 8 -13 5 0 9 -6 9 -13 0 -9 -25 -12 -99 -12 -99 1
-146 -8 -92 -18 16 -3 36 -6 44 -6 25 0 123 -10 150 -16 22 -4 33 -14 67 -60
7 -8 24 -42 40 -77 3 -6 -40 -5 -165 6 -24 2 -40 0 -35 -4 10 -10 113 -39 147
-42 14 -1 26 -5 26 -9 0 -4 8 -5 19 -2 19 5 64 -33 56 -48 -3 -4 -24 -6 -48
-5 -23 1 -50 -2 -59 -6 -12 -6 -18 -5 -18 4 0 9 -3 9 -12 0 -7 -7 -17 -8 -30
-1 -10 5 -18 8 -18 5 0 -3 -14 -1 -31 4 -22 7 -29 6 -26 -3 2 -7 8 -12 13 -13
5 0 27 -6 49 -12 22 -6 65 -13 95 -16 105 -8 140 -24 140 -63 0 -7 5 -13 11
-13 5 0 7 -4 4 -10 -3 -5 -1 -10 4 -10 6 0 11 -9 11 -19 0 -17 -4 -18 -30 -11
-16 5 -30 5 -30 1 0 -5 -15 -6 -32 -4 -18 3 -50 5 -70 7 -20 1 -40 5 -44 9 -4
4 -14 7 -23 7 -11 0 -9 -4 7 -16 29 -20 42 -23 190 -40 60 -6 74 -18 103 -82
12 -26 24 -51 27 -56 8 -14 -97 0 -221 30 -37 9 -70 14 -73 12 -5 -5 68 -35
101 -41 11 -2 27 -7 35 -10 8 -4 26 -9 40 -11 14 -3 36 -7 50 -10 13 -3 39 -7
57 -8 22 -1 35 -8 39 -20 3 -10 10 -18 16 -18 6 0 8 -3 5 -7 -4 -3 -3 -11 2
-17 25 -33 20 -43 -22 -40 -197 16 -256 8 -241 -31 7 -18 26 -19 41 -4 11 11
51 13 98 5 54 -10 100 -18 115 -21 8 -2 26 -4 38 -4 15 -1 26 -9 29 -21 3 -11
9 -20 14 -20 5 0 8 -3 7 -7 -1 -5 8 -27 20 -50 22 -41 22 -43 3 -53 -11 -5
-33 -8 -50 -6 -17 2 -31 -1 -31 -6 0 -5 17 -9 38 -8 82 4 81 4 115 -67 35 -77
40 -94 24 -87 -21 8 -147 12 -151 5 -3 -4 7 -8 22 -9 15 -1 53 -9 85 -17 33
-8 62 -13 66 -11 3 2 15 -16 26 -40 11 -24 22 -44 25 -44 3 0 6 -8 7 -19 1
-17 -5 -18 -70 -15 -40 1 -72 3 -72 4 0 1 -20 3 -45 5 -25 1 -49 4 -55 6 -5 2
-12 0 -15 -5 -3 -5 4 -11 15 -13 36 -7 170 -24 195 -25 8 0 32 -5 52 -11 31
-8 40 -17 54 -53 17 -44 17 -62 0 -56 -5 2 -32 5 -60 7 -28 2 -51 4 -51 5 0 1
-9 3 -20 4 -11 2 -35 6 -52 10 -28 6 -32 5 -27 -8 3 -9 12 -17 20 -17 17 -2
25 -4 45 -13 9 -4 20 -6 25 -5 5 1 11 1 14 0 7 -3 90 -12 118 -14 36 -2 89
-91 55 -92 -6 0 -15 -3 -19 -7 -4 -4 -13 -3 -21 3 -7 6 -13 7 -13 3 0 -5 -28
-9 -63 -9 -70 1 -138 -12 -82 -15 191 -10 232 -13 242 -22 7 -5 17 -26 24 -46
6 -20 15 -41 20 -46 5 -6 9 -13 9 -16 0 -4 -61 -6 -135 -6 -130 2 -166 -2 -88
-9 42 -4 134 -14 175 -20 55 -7 68 -17 93 -69 14 -29 25 -57 25 -62 0 -10 -60
-10 -110 0 -51 9 -124 17 -120 12 3 -3 18 -7 33 -10 14 -2 31 -7 37 -11 9 -6
153 -36 178 -38 14 0 57 -75 48 -84 -3 -3 -39 -6 -80 -7 -41 -1 -77 -4 -80 -7
-3 -3 0 -6 6 -6 36 -2 136 -13 153 -17 11 -2 23 -5 28 -5 4 -1 7 -10 7 -21 0
-11 5 -20 11 -20 5 0 7 -4 4 -10 -3 -5 -1 -10 5 -10 6 0 9 -4 5 -10 -3 -5 -25
-9 -48 -8 -161 2 -222 -9 -100 -18 56 -4 102 -11 133 -19 8 -2 20 -4 26 -4 21
-2 25 -33 8 -52 -13 -14 -21 -16 -36 -8 -22 12 -157 18 -164 8 -5 -9 26 -20
37 -13 5 3 9 1 9 -4 0 -5 13 -8 30 -7 16 1 35 -2 42 -6 7 -5 8 -9 3 -9 -30 0
-84 -71 -110 -145 -6 -16 -19 4 -62 92 -30 62 -53 114 -51 117 2 2 -4 12 -12
22 -9 11 -33 57 -55 104 -22 47 -43 87 -47 88 -5 2 -8 8 -8 13 0 6 -22 56 -50
112 -27 56 -50 110 -50 121 0 10 -12 30 -26 43 -17 16 -24 31 -21 44 3 12 0
22 -9 26 -17 6 -64 94 -64 118 0 8 -4 15 -8 15 -10 0 -62 113 -62 133 0 8 -9
22 -20 32 -11 10 -36 50 -54 89 -18 39 -51 109 -74 156 -22 47 -46 100 -53
118 -8 17 -17 32 -21 32 -4 0 -5 9 -3 20 2 11 -2 23 -8 27 -14 9 -102 183 -99
196 1 4 -3 7 -9 7 -5 0 -8 4 -4 9 3 5 -2 16 -10 24 -8 9 -15 22 -15 31 0 8 -5
18 -10 21 -6 4 -8 10 -5 15 3 4 -2 13 -10 20 -8 7 -15 18 -15 24 0 7 -9 31
-20 54 -11 22 -20 46 -20 52 0 5 -4 10 -8 10 -4 0 -8 8 -9 18 -1 9 -13 43 -27
75 -14 31 -26 60 -27 65 -5 26 -72 191 -133 326 -20 43 -36 80 -36 82 0 4 137
-5 171 -11z m-471 -41 c0 -8 -11 -21 -25 -30 -15 -9 -25 -26 -25 -39 0 -29
-61 -58 -75 -35 -3 6 0 10 7 10 7 0 22 12 33 26 10 14 27 35 37 46 10 12 18
24 18 28 0 4 7 7 15 7 8 0 15 -6 15 -13z m-116 -160 c10 -25 -1 -29 -14 -5 -6
12 -7 21 -1 21 5 0 12 -7 15 -16z m103 -56 c-3 -7 -5 -2 -5 12 0 14 2 19 5 13
2 -7 2 -19 0 -25z m373 -129 c-7 -16 -22 -35 -34 -41 -21 -11 -21 -11 -2 11
11 11 16 21 11 21 -4 0 -2 6 4 13 6 8 8 17 4 20 -3 4 -1 7 5 7 7 0 11 3 11 8
-3 18 4 25 8 9 3 -10 -1 -32 -7 -48z m-147 -75 c-15 -33 -34 -65 -40 -72 -7
-7 -13 -19 -13 -26 0 -8 -7 -19 -15 -26 -8 -7 -13 -16 -10 -20 3 -5 -2 -15
-10 -24 -9 -8 -16 -19 -16 -23 -1 -4 -4 -14 -8 -21 -6 -11 -10 -10 -21 3 -11
13 -11 21 3 49 15 32 108 167 135 194 6 7 12 18 12 24 0 6 2 9 5 6 3 -3 -7
-32 -22 -64z m-233 36 c0 -5 -5 -10 -11 -10 -5 0 -7 5 -4 10 3 6 8 10 11 10 2
0 4 -4 4 -10z m33 -33 c-2 -4 -3 -12 -3 -18 0 -6 -5 -9 -11 -7 -6 2 -10 7 -9
12 1 5 -4 13 -12 17 -9 6 -5 8 12 6 14 -2 24 -7 23 -10z m27 -93 c0 -8 -5 -12
-10 -9 -6 4 -8 11 -5 16 9 14 15 11 15 -7z m480 -43 c10 -26 9 -34 -9 -60 -12
-16 -21 -34 -21 -40 0 -6 -4 -11 -9 -11 -5 0 -12 -10 -16 -22 -4 -14 -8 -18
-12 -10 -2 7 9 37 26 67 28 49 33 94 10 79 -11 -6 -11 -1 -3 20 8 21 19 13 34
-23z m-97 -2 c-10 -17 -25 -36 -33 -42 -10 -8 -9 -4 3 13 10 14 20 33 24 43 3
9 10 17 15 17 5 0 1 -14 -9 -31z m-263 -94 c0 -8 -4 -15 -10 -15 -5 0 -7 7 -4
15 4 8 8 15 10 15 2 0 4 -7 4 -15z m400 2 c0 -8 -3 -17 -7 -21 -5 -4 -8 -11
-8 -14 -1 -14 -18 -57 -24 -62 -3 -3 -17 -26 -30 -51 -27 -53 -67 -87 -51 -44
5 13 20 41 33 62 13 21 35 62 48 91 23 50 39 66 39 39z m-422 -47 c-9 -13 -16
-16 -23 -9 -7 7 -5 13 5 19 24 15 31 11 18 -10z m164 -60 c-9 -16 -20 -30 -24
-30 -5 0 -8 -8 -8 -19 0 -10 -7 -24 -15 -31 -8 -7 -15 -19 -15 -26 0 -8 -4
-14 -10 -14 -10 0 -3 27 11 45 4 6 10 23 13 39 3 15 10 33 15 40 6 7 8 16 4
19 -3 4 5 7 20 7 l26 0 -17 -30z m324 -35 c-3 -20 -16 -31 -16 -13 0 13 8 28
16 28 1 0 1 -7 0 -15z m-418 -43 c2 -7 -2 -10 -12 -6 -9 3 -16 11 -16 16 0 13
23 5 28 -10z m211 -76 c-6 -12 -16 -23 -23 -23 -10 0 -9 7 3 28 18 32 35 29
20 -5z m-122 -24 c-6 -22 -7 -47 -2 -58 12 -29 14 -44 5 -44 -10 0 -24 31 -21
45 1 6 -3 4 -11 -3 -11 -11 -10 -14 2 -22 8 -5 11 -10 6 -10 -6 0 -5 -5 2 -12
7 -7 12 -17 12 -22 0 -6 -9 2 -19 18 -22 33 -20 95 3 108 9 5 16 16 16 23 0 8
4 15 9 15 4 0 4 -17 -2 -38z m-47 18 c0 -5 -2 -10 -4 -10 -3 0 -8 5 -11 10 -3
6 -1 10 4 10 6 0 11 -4 11 -10z m459 -76 c-24 -29 -33 -8 -22 50 l5 29 14 -33
c11 -24 11 -36 3 -46z m-469 26 c6 -11 8 -20 6 -20 -3 0 -10 9 -16 20 -6 11
-8 20 -6 20 3 0 10 -9 16 -20z m328 -37 c-5 -21 -15 -44 -22 -52 -6 -8 -10
-16 -8 -18 6 -7 -36 -88 -56 -109 -11 -11 -31 -42 -45 -68 -22 -42 -27 -45
-35 -29 -7 13 -6 24 4 38 8 10 14 15 14 11 0 -26 112 163 139 237 15 40 21 33
9 -10z m-74 19 c3 -5 -1 -9 -9 -9 -8 0 -12 4 -9 9 3 4 7 8 9 8 2 0 6 -4 9 -8z
m-14 -26 c0 -11 -19 -15 -25 -6 -3 5 1 10 9 10 9 0 16 -2 16 -4z m-108 -50
c-15 -24 -30 -42 -34 -40 -3 2 -8 -2 -11 -8 -2 -7 -7 -11 -10 -8 -3 3 7 21 24
40 16 19 34 41 39 48 22 26 18 10 -8 -32z m58 -31 c0 -7 -6 -20 -13 -27 -7 -7
-21 -32 -31 -56 l-20 -43 -11 28 c-8 20 -8 31 -1 40 27 30 36 43 36 48 0 3 6
12 13 19 14 16 27 11 27 -9z m189 -22 c-13 -16 -25 -30 -26 -32 -2 -2 -3 0 -3
5 0 14 33 54 44 54 5 0 -1 -12 -15 -27z m70 -54 c-31 -58 -68 -109 -73 -101
-3 5 4 21 15 36 11 14 18 26 15 26 -4 0 6 14 21 30 31 35 38 38 22 9z m118
-20 c-6 -10 -15 -19 -19 -19 -12 0 -10 18 2 25 6 4 8 11 5 16 -3 5 1 6 9 3 12
-5 13 -9 3 -25z m-264 -25 c-13 -47 -86 -165 -96 -155 -11 11 1 53 14 46 5 -3
25 28 46 69 38 77 50 91 36 40z m301 -33 c3 -5 -1 -11 -9 -14 -9 -4 -12 -1 -8
9 6 16 10 17 17 5z m-284 -35 c-5 -14 -13 -33 -19 -43 -5 -10 -20 -39 -32 -66
-13 -26 -26 -44 -31 -39 -5 5 9 37 29 72 21 35 39 67 39 72 1 4 2 13 3 18 0 6
5 10 11 10 6 0 6 -9 0 -24z m321 -58 c-10 -11 -11 -10 -6 5 4 10 2 17 -4 17
-6 0 -11 5 -11 12 0 8 6 6 17 -5 14 -14 15 -19 4 -29z m-281 -71 c0 -9 -41
-50 -45 -45 -6 5 27 48 38 48 4 0 7 -2 7 -3z m50 -1 c0 -2 -8 -10 -17 -17 -16
-13 -17 -12 -4 4 13 16 21 21 21 13z m292 -33 c2 -10 -6 -33 -19 -52 -26 -38
-29 -30 -11 29 14 43 23 50 30 23z m-337 -108 c-3 -8 -8 -23 -12 -32 -7 -20
-10 -29 -12 -40 -1 -5 -6 -1 -11 7 -10 16 -4 46 12 68 14 17 28 15 23 -3z m95
-65 c0 -11 -52 -61 -58 -55 -2 2 9 17 24 33 34 35 34 35 34 22z m320 -10 c0
-11 -4 -20 -9 -20 -5 0 -7 9 -4 20 3 11 7 20 9 20 2 0 4 -9 4 -20z m-20 6 c0
-2 -8 -10 -17 -17 -16 -13 -17 -12 -4 4 13 16 21 21 21 13z m-107 -31 c-3 -9
-8 -14 -10 -11 -3 3 -2 9 2 15 9 16 15 13 8 -4z m-210 -62 c-3 -16 -6 -32 -7
-38 -1 -5 -5 -16 -9 -22 -5 -7 -5 -17 -2 -23 11 -18 33 -10 55 20 12 17 26 28
31 24 5 -3 7 -10 3 -15 -3 -6 -8 -25 -11 -42 -3 -18 -9 -34 -14 -35 -5 -2 -7
-7 -4 -12 3 -4 1 -18 -3 -31 -8 -20 -14 -12 -51 66 l-43 88 29 23 c15 13 29
23 30 24 1 0 -1 -12 -4 -27z m397 -32 c0 -17 -10 -37 -27 -52 -18 -16 -24 -19
-20 -8 3 10 11 35 18 58 13 44 29 46 29 2z m41 -109 c-6 -2 -9 -7 -7 -11 3 -3
-4 -18 -15 -31 l-19 -25 11 35 c15 46 32 67 38 49 2 -7 -1 -15 -8 -17z m-178
-67 c-3 -9 -8 -14 -10 -11 -3 3 -2 9 2 15 9 16 15 13 8 -4z m-17 -40 c-1 -8
-7 -20 -13 -26 -7 -7 -9 -3 -6 15 6 27 23 37 19 11z m276 -23 c16 -38 18 -52
7 -52 -5 0 -9 -7 -9 -15 0 -9 -17 -51 -37 -93 -20 -42 -37 -79 -38 -82 -1 -3
-5 -17 -9 -32 -5 -16 -12 -28 -17 -28 -5 0 -8 -3 -7 -7 3 -15 -14 -43 -23 -38
-8 6 -8 10 12 60 7 17 14 41 16 55 2 13 8 29 12 35 7 9 42 104 47 130 10 48
16 82 17 92 1 18 17 4 29 -25z m-379 -14 c-3 -18 -8 -34 -13 -36 -4 -2 -5 -12
-2 -24 8 -30 -21 -18 -32 14 -6 18 -4 32 9 51 25 38 45 35 38 -5z m307 -55
c-4 -16 -20 -58 -34 -94 -14 -37 -22 -69 -19 -73 6 -6 -12 -10 -29 -7 -5 0 -8
-3 -8 -9 0 -5 -7 -7 -15 -4 -10 4 -12 11 -6 22 5 10 10 22 10 27 2 10 36 58
58 80 7 7 10 15 7 17 -2 3 2 11 11 18 8 7 15 21 15 31 0 11 4 19 9 19 6 0 6
-11 1 -27z m-245 -38 c-3 -14 -8 -37 -12 -52 -13 -52 -11 -63 9 -63 14 0 18
-6 16 -30 -1 -16 -3 -30 -5 -30 -2 0 -15 19 -29 42 -28 44 -34 85 -14 98 6 4
11 11 10 16 -2 18 9 44 19 44 7 0 9 -10 6 -25z m269 -150 c-9 -28 -16 -56 -17
-62 0 -7 -3 -13 -7 -13 -4 0 -7 -6 -8 -12 -1 -17 -7 -39 -16 -60 -6 -14 -9
-25 -15 -58 -1 -3 -5 1 -10 8 -9 14 6 93 20 102 4 3 9 14 11 25 1 11 9 26 16
33 6 7 13 20 13 28 2 18 4 25 14 47 15 34 14 11 -1 -38z m-200 -52 c-1 -16 -2
-36 -3 -45 -1 -17 -2 -17 -20 0 -14 13 -15 20 -6 27 6 6 14 18 18 28 9 25 14
21 11 -10z m362 -38 c-3 -13 -11 -37 -18 -52 -6 -15 -12 -30 -13 -33 -1 -3 -4
-12 -8 -20 -3 -8 -13 -37 -22 -65 -9 -27 -24 -59 -34 -70 -31 -36 -50 -72 -62
-121 l-12 -48 -27 55 c-24 49 -25 56 -12 77 8 12 19 22 26 22 7 0 7 -3 1 -8
-5 -4 -11 -18 -13 -30 -11 -78 89 60 120 165 7 24 17 43 22 43 5 0 7 3 3 6 -3
4 1 21 10 38 10 17 16 34 15 39 -1 4 3 7 9 7 5 0 7 5 4 10 -3 6 -1 10 5 10 8
0 10 -9 6 -25z m-106 -19 c0 -13 -26 -73 -37 -84 -7 -7 -13 -19 -13 -26 0 -8
-7 -19 -15 -26 -10 -9 -15 -9 -15 -1 0 6 5 11 11 11 5 0 8 4 5 8 -3 5 3 26 13
48 10 21 21 47 25 57 4 14 26 25 26 13z m534 -45 c9 -7 16 -18 16 -24 0 -5 7
-15 15 -21 18 -14 19 -38 10 -206 -5 -74 -8 -180 -9 -235 -1 -55 -4 -105 -8
-111 -4 -7 -25 -15 -45 -20 -21 -4 -40 -8 -43 -9 -21 -7 -48 -18 -62 -26 -10
-5 -25 -9 -33 -9 -22 0 -88 -44 -129 -86 -20 -20 -36 -32 -36 -25 0 7 -4 9
-10 6 -5 -3 -10 -1 -10 4 0 6 -6 11 -14 11 -8 0 -16 4 -18 8 -1 5 -91 63 -198
129 -107 67 -200 126 -207 132 -7 6 -16 11 -21 11 -5 0 -17 9 -27 20 -18 20
-18 21 3 27 12 3 22 9 22 13 0 7 90 5 125 -4 11 -3 34 -10 51 -17 26 -10 34
-9 57 6 17 11 27 27 28 44 3 65 8 90 24 124 19 41 81 100 96 92 5 -4 9 -2 9 3
0 5 33 10 74 11 58 2 75 -1 79 -14 11 -27 32 -16 57 33 14 26 30 53 37 60 7 7
19 22 26 32 15 21 91 59 112 56 7 -1 20 -8 29 -15z m384 -5 c34 -19 70 -73 55
-86 -4 -4 -50 -21 -102 -39 -52 -18 -126 -48 -164 -67 -38 -20 -71 -33 -74
-30 -3 3 -7 29 -9 58 -5 74 -11 118 -19 152 -5 17 -4 27 1 24 5 -3 29 -2 54 1
84 13 222 5 258 -13z m-1124 -13 c-1 -16 -3 -32 -3 -38 -2 -13 -30 36 -31 53
0 6 8 12 18 12 15 0 18 -7 16 -27z m2009 5 c16 -12 15 -17 -7 -63 -30 -65
-108 -133 -105 -92 2 33 74 167 90 167 3 0 13 -6 22 -12z m-1615 -38 c-7 -10
-14 -18 -15 -16 -6 6 9 36 18 36 5 0 4 -9 -3 -20z m47 -53 c6 -24 5 -25 -21
-18 -27 7 -46 31 -25 31 6 0 11 9 11 21 0 18 2 19 15 6 7 -8 17 -26 20 -40z
m-88 8 c0 -8 -4 -15 -9 -15 -10 0 -11 14 -1 23 9 10 10 9 10 -8z m-233 -40
c-9 -14 -18 -25 -20 -25 -2 0 2 11 8 25 6 14 15 25 20 25 5 0 1 -11 -8 -25z
m1019 -57 c-27 -46 -116 -114 -222 -171 l-91 -48 4 47 c4 52 6 55 99 110 60
35 219 105 226 98 2 -1 -5 -18 -16 -36z"/>
<path d="M1845 4740 c-3 -5 -1 -10 4 -10 6 0 11 5 11 10 0 6 -2 10 -4 10 -3 0
-8 -4 -11 -10z"/>
<path d="M2300 3937 c10 -9 70 -16 70 -9 0 4 -17 9 -37 10 -21 2 -35 1 -33 -1z"/>
<path d="M955 4990 c-3 -5 -4 -10 0 -10 3 0 1 -9 -5 -20 -7 -14 -7 -20 0 -20
9 0 12 14 9 36 0 4 5 11 13 15 9 6 9 9 1 9 -6 0 -15 -4 -18 -10z"/>
<path d="M1055 4820 c-3 -6 1 -7 9 -4 18 7 21 14 7 14 -6 0 -13 -4 -16 -10z"/>
<path d="M4432 4626 c-10 -14 -22 -22 -26 -19 -3 3 -6 -1 -6 -9 0 -9 -3 -18
-8 -20 -4 -1 -30 -32 -57 -68 -28 -36 -52 -67 -55 -70 -3 -3 -18 -23 -35 -45
-16 -22 -31 -42 -34 -45 -13 -11 -71 -101 -71 -109 0 -5 -7 -12 -16 -15 -9 -4
-14 -9 -11 -12 3 -4 2 -11 -4 -18 -5 -6 -23 -29 -39 -51 -16 -22 -34 -45 -40
-52 -5 -7 -10 -15 -10 -18 0 -3 -12 -23 -27 -44 -16 -21 -35 -49 -43 -61 -8
-13 -22 -31 -32 -41 -9 -9 -14 -19 -12 -22 3 -2 -2 -7 -10 -10 -20 -8 -27 16
-31 109 -3 41 -7 79 -10 84 -3 5 -1 11 5 15 6 4 7 12 3 18 -4 7 -9 50 -10 97
-2 47 -4 90 -5 97 -2 19 -27 24 -51 11 -35 -18 -175 -166 -197 -208 -5 -10
-16 -24 -23 -32 -7 -7 -28 -33 -47 -58 -19 -25 -38 -46 -42 -48 -5 -2 -8 -10
-8 -18 0 -8 -4 -14 -10 -14 -5 0 -10 -7 -10 -15 0 -8 -4 -15 -10 -15 -5 0 -10
-7 -10 -15 0 -8 -4 -15 -9 -15 -5 0 -13 -9 -16 -20 -9 -29 -22 -24 -19 8 1 15
3 27 4 27 2 0 10 35 12 58 1 9 5 17 9 17 4 0 5 9 2 20 -3 11 -1 20 3 20 5 0
10 10 11 23 5 47 8 62 15 67 4 3 9 17 12 30 10 51 15 68 30 118 8 29 12 52 9
52 -3 0 0 7 7 15 7 9 10 18 7 21 -3 3 4 25 16 47 23 44 27 58 30 97 2 18 -5
27 -26 34 -31 11 -62 -1 -62 -25 0 -8 -3 -18 -7 -24 -6 -11 -33 -104 -42 -145
-3 -14 -12 -51 -20 -82 -8 -32 -12 -58 -9 -58 3 0 1 -6 -5 -12 -5 -7 -13 -30
-16 -52 -4 -21 -8 -41 -10 -45 -4 -5 -13 -54 -21 -106 -2 -11 -4 -20 -5 -20
-5 0 -21 -97 -24 -151 -2 -25 -6 -47 -8 -50 -7 -7 3 -53 13 -60 10 -6 69 23
69 34 0 5 8 17 18 28 9 10 51 66 92 124 41 58 77 107 80 110 3 3 18 23 34 45
16 22 36 47 43 55 7 8 38 48 69 88 31 40 58 71 61 68 2 -2 6 -40 8 -83 2 -43
4 -78 5 -78 1 0 3 -40 6 -90 8 -157 14 -170 78 -161 23 3 42 5 43 5 10 4 63
66 63 75 0 7 8 21 18 32 10 10 33 45 52 77 19 31 38 57 43 57 4 0 5 5 2 10 -3
6 1 13 9 16 9 3 16 11 16 16 0 11 98 158 115 173 7 6 12 12 11 15 0 3 14 26
32 52 18 26 32 49 32 53 0 3 9 15 20 27 10 12 17 25 14 30 -3 4 0 8 6 8 6 0 9
4 6 9 -4 5 -2 11 2 13 13 5 95 138 89 144 -2 3 -14 -6 -25 -20z"/>
<path d="M1185 4429 c-4 -6 -5 -12 -2 -15 2 -3 7 2 10 11 7 17 1 20 -8 4z"/>
<path d="M4327 4204 c-15 -8 -27 -11 -27 -7 0 4 -26 -19 -58 -52 -66 -69 -89
-123 -69 -164 11 -23 18 -26 62 -24 28 0 57 3 65 5 12 3 121 55 161 76 4 1 5
-8 4 -22 -5 -46 18 -64 80 -63 30 1 55 4 55 7 0 7 72 35 83 32 4 -1 7 2 7 7 0
5 14 14 30 20 17 5 30 15 30 22 0 7 3 10 6 6 7 -7 88 46 99 64 13 20 -3 20
-38 0 -19 -11 -38 -17 -41 -14 -3 4 -6 2 -6 -3 0 -5 -20 -18 -45 -29 -25 -11
-45 -24 -45 -28 0 -5 -4 -6 -9 -2 -5 3 -12 1 -16 -4 -7 -12 -65 -31 -113 -37
-31 -4 -32 -3 -26 23 9 36 23 49 52 47 12 -1 22 3 22 8 0 5 4 7 9 3 6 -3 14 3
20 12 6 10 11 14 11 9 0 -5 17 9 37 30 20 21 40 38 44 37 4 -1 6 5 5 14 -4 23
-34 42 -59 37 -32 -5 -97 -40 -90 -48 4 -3 1 -6 -5 -6 -6 0 -29 -19 -52 -42
-23 -24 -44 -42 -46 -40 -9 5 -23 1 -36 -11 -11 -10 -58 -36 -78 -42 -9 -3
-44 -16 -68 -26 -49 -19 -86 -3 -62 26 7 8 9 15 6 15 -4 0 -1 6 6 14 8 9 17
11 22 5 6 -5 15 -4 23 2 7 7 13 9 13 6 0 -7 42 27 93 76 36 33 39 40 26 53
-22 21 -51 24 -82 8z m0 -68 c-3 -8 -15 -20 -26 -26 -17 -9 -20 -8 -15 5 3 8
10 13 14 10 4 -3 10 5 13 17 4 12 9 19 13 15 3 -3 4 -13 1 -21z m303 11 c0 -7
-15 -24 -32 -37 -33 -24 -30 -17 12 31 19 22 20 22 20 6z"/>
<path d="M4993 3018 c-5 -7 -31 -65 -57 -128 -27 -63 -53 -120 -58 -126 -5 -7
-30 -15 -56 -19 -54 -8 -72 -20 -72 -46 0 -20 19 -25 36 -10 5 4 24 13 42 19
40 14 40 13 3 -106 -29 -90 -44 -154 -55 -235 -4 -34 -3 -38 16 -35 21 3 31
31 129 341 16 50 27 67 40 68 11 1 22 2 27 4 4 1 35 5 70 10 58 7 82 18 68 32
-6 7 -99 5 -138 -2 l-27 -5 45 95 c55 116 60 149 23 153 -14 2 -30 -3 -36 -10z"/>
<path d="M1920 2940 c-6 -11 -7 -20 -2 -20 6 0 12 9 15 20 3 11 3 20 1 20 -2
0 -8 -9 -14 -20z"/>
<path d="M2086 2749 c-8 -41 -8 -51 2 -45 8 5 16 76 9 76 -3 0 -7 -14 -11 -31z"/>
<path d="M2142 2500 c0 -14 2 -19 5 -12 2 6 2 18 0 25 -3 6 -5 1 -5 -13z"/>
<path d="M3133 1503 c-7 -2 -13 -9 -13 -15 0 -5 -6 -24 -14 -41 -56 -122 -73
-166 -68 -171 3 -3 0 -6 -7 -6 -7 0 -10 -4 -6 -9 3 -5 1 -12 -5 -16 -6 -4 -7
-11 -4 -17 4 -7 2 -8 -4 -4 -7 4 -12 2 -12 -3 0 -6 -3 -10 -7 -10 -5 1 -10 0
-13 -1 -3 -1 -16 -3 -30 -5 -53 -6 -71 -16 -83 -47 -5 -14 -1 -17 18 -16 14 1
25 7 25 12 0 5 3 7 6 3 4 -3 19 0 35 8 15 8 30 12 33 7 6 -11 -5 -62 -14 -62
-5 0 -7 -8 -6 -17 2 -10 -1 -25 -5 -33 -10 -20 -22 -54 -21 -60 0 -3 -18 -6
-41 -7 -22 -2 -44 -9 -49 -15 -4 -8 -8 -9 -8 -2 0 6 -10 10 -22 8 -13 -1 -23
-3 -23 -4 0 -1 -13 -4 -30 -6 -16 -3 -27 -2 -23 1 13 14 -66 95 -93 95 -9 0
-19 5 -21 10 -2 6 -24 12 -50 13 -25 1 -44 5 -42 9 2 3 -43 6 -101 6 -73 0
-103 -3 -99 -10 5 -7 2 -8 -7 -2 -8 4 -25 9 -39 10 -14 1 -28 2 -32 3 -10 2 0
45 12 49 6 2 8 8 4 13 -3 5 -1 9 4 9 5 0 12 9 15 21 4 13 10 18 18 13 7 -4 10
-3 5 4 -3 6 2 15 11 21 10 6 14 11 10 11 -4 0 4 12 20 28 15 15 31 26 35 24 4
-1 8 3 8 9 0 5 5 7 10 4 6 -3 10 -1 10 5 0 10 48 35 63 32 4 -1 7 2 7 7 0 11
75 42 117 48 34 5 36 -1 18 -58 -4 -11 -1 -27 6 -35 10 -13 14 -12 31 3 46 41
67 122 39 147 -10 9 -21 13 -24 9 -4 -3 -7 -1 -7 5 0 13 -27 12 -47 -1 -7 -5
-13 -4 -13 2 0 7 -8 7 -27 0 -14 -5 -32 -8 -40 -5 -7 3 -13 1 -13 -3 0 -5 -7
-12 -16 -15 -10 -4 -13 -2 -8 7 4 6 -2 3 -14 -7 -12 -11 -22 -16 -22 -12 0 4
-12 -2 -26 -13 -15 -11 -30 -18 -35 -15 -5 3 -9 -2 -9 -10 0 -9 -4 -15 -8 -14
-24 8 -180 -143 -209 -202 -17 -35 -23 -79 -12 -86 5 -3 7 -9 4 -14 -6 -10 54
-32 66 -24 5 3 9 1 9 -5 0 -7 20 -9 53 -5 115 11 246 13 252 4 3 -5 12 -7 20
-3 8 3 15 -1 15 -8 0 -7 3 -9 6 -6 14 13 83 -43 77 -63 0 -3 4 -14 9 -24 8
-15 7 -18 -5 -13 -9 3 -17 2 -19 -3 -2 -5 -14 -11 -28 -13 -14 -3 -37 -10 -52
-16 -16 -6 -28 -7 -28 -3 0 4 -4 1 -8 -6 -5 -7 -22 -15 -38 -18 -16 -3 -32
-11 -36 -17 -4 -7 -8 -8 -8 -3 0 5 -6 3 -13 -3 -8 -6 -17 -8 -20 -4 -4 3 -7 1
-7 -5 0 -7 -3 -11 -7 -10 -15 2 -103 -43 -103 -53 0 -6 -4 -7 -10 -4 -5 3 -10
3 -10 -2 0 -4 -12 -14 -27 -20 -16 -7 -40 -24 -55 -38 -15 -14 -30 -25 -33
-25 -3 0 -23 -17 -45 -39 -21 -21 -42 -36 -45 -33 -3 3 -5 1 -5 -5 0 -5 -16
-26 -35 -46 -19 -20 -35 -41 -35 -47 0 -5 -4 -10 -8 -10 -15 0 -12 -50 3 -51
15 -1 28 -4 43 -9 7 -2 11 -2 45 6 9 2 25 6 35 8 10 2 34 11 54 19 20 9 39 13
42 9 3 -3 6 0 6 7 0 8 7 11 15 7 8 -3 15 -2 15 3 0 4 18 14 40 21 22 7 40 17
40 22 0 5 4 7 9 3 5 -3 15 0 23 7 7 7 20 14 28 16 8 2 17 7 20 10 3 4 21 16
40 26 19 11 39 25 43 33 4 7 15 13 22 13 8 0 15 4 15 10 0 5 3 9 8 8 13 -5
152 125 152 142 0 6 5 8 12 4 6 -4 8 -3 4 4 -3 6 0 17 8 25 8 8 13 17 10 20
-6 6 42 40 63 44 21 5 37 10 53 16 8 4 26 8 40 9 19 2 26 -2 28 -19 2 -14 -2
-23 -10 -23 -10 0 -9 -3 2 -10 8 -5 10 -10 5 -10 -6 0 -12 -15 -13 -32 -2 -18
-5 -44 -7 -58 -2 -14 0 -32 5 -40 8 -13 11 -13 26 2 9 9 17 28 17 42 0 14 3
26 8 26 5 0 8 3 7 8 -8 27 51 152 72 152 13 1 13 2 -1 13 -14 11 -15 17 -2 57
8 25 16 52 18 60 2 8 4 16 5 18 3 2 4 7 15 40 4 12 14 22 21 22 22 0 28 1 47
11 12 7 17 6 17 -3 0 -9 3 -9 10 2 5 8 10 12 10 8 0 -4 11 -3 25 2 16 6 25 6
25 -1 0 -5 14 -2 31 6 17 9 28 19 25 22 -6 6 -120 5 -154 -2 -28 -5 -36 9 -18
28 8 8 12 17 9 21 -4 3 -1 6 5 6 7 0 11 3 10 8 -1 4 9 30 21 57 12 28 23 55
24 60 1 6 5 13 10 16 4 3 9 19 11 35 4 26 1 30 -22 31 -15 1 -33 -1 -39 -4z
m-490 -635 c-4 -7 -8 -19 -10 -27 -1 -12 -37 -48 -125 -125 -9 -8 -19 -12 -22
-9 -3 4 -6 1 -6 -6 0 -7 -4 -9 -10 -6 -5 3 -10 1 -10 -5 0 -6 -4 -8 -10 -5 -5
3 -10 3 -10 -2 0 -4 -32 -23 -70 -42 -39 -18 -73 -37 -76 -42 -3 -5 -16 -9
-30 -9 -13 0 -24 -5 -24 -11 0 -5 -5 -7 -10 -4 -6 4 -17 1 -25 -5 -8 -6 -19
-9 -25 -5 -5 3 -10 2 -10 -3 0 -5 -11 -12 -25 -14 -14 -3 -25 -1 -25 4 0 15
66 78 74 71 3 -3 6 0 6 8 0 8 15 21 33 29 17 8 31 19 29 24 -2 5 11 15 29 23
19 8 36 17 39 21 3 4 14 14 24 22 18 13 19 13 12 0 -7 -13 -6 -13 6 0 15 17
43 36 73 49 11 5 47 21 80 37 33 15 66 27 73 26 6 -2 12 2 12 8 0 5 9 10 21
10 14 0 18 -4 12 -12z"/>
<path d="M3860 1182 c-8 -9 -15 -21 -16 -26 -1 -6 -5 -19 -9 -28 -5 -14 -2
-16 16 -13 28 6 54 34 54 59 0 24 -25 28 -45 8z"/>
<path d="M4134 1095 c-18 -8 -48 -29 -68 -48 -19 -19 -38 -32 -41 -29 -3 3 -5
-2 -5 -10 0 -9 -7 -18 -15 -22 -8 -3 -15 -12 -15 -20 0 -12 -11 -20 -40 -31
-3 -1 -21 -8 -40 -16 -19 -7 -39 -12 -43 -11 -5 1 -6 -2 -2 -8 3 -5 -1 -11 -9
-11 -33 -3 -37 -4 -45 -18 -6 -9 -11 -10 -15 -2 -8 12 21 81 38 93 6 4 7 8 2
8 -5 0 -3 8 5 18 13 15 15 31 10 69 -1 14 -34 10 -39 -5 -2 -7 -9 -9 -15 -5
-7 3 -9 3 -6 -1 4 -4 -8 -36 -27 -72 -18 -35 -31 -64 -27 -64 3 0 -2 -11 -11
-25 -9 -13 -15 -32 -13 -42 4 -24 26 -62 27 -45 0 10 5 10 20 2 14 -8 20 -8
20 0 0 6 4 9 9 6 5 -3 20 4 35 15 14 11 26 18 26 15 0 -3 12 6 26 19 15 14 33
25 40 25 8 0 14 4 14 8 0 10 30 12 31 3 0 -3 2 -16 3 -27 1 -12 9 -28 17 -36
16 -15 109 -20 109 -5 0 5 7 7 15 3 8 -3 15 0 15 6 0 6 3 9 6 5 3 -3 35 10 70
28 35 18 64 31 64 29 0 -3 7 2 16 11 16 16 53 12 65 -7 4 -7 8 -7 10 0 2 5 28
12 57 15 45 5 52 3 42 -9 -7 -7 -16 -11 -21 -8 -5 3 -9 0 -9 -5 0 -6 -9 -11
-20 -11 -11 0 -20 -4 -20 -10 0 -5 -7 -10 -15 -10 -8 0 -15 -5 -15 -11 0 -5
-4 -8 -9 -4 -5 3 -19 -7 -30 -21 -12 -15 -21 -24 -21 -20 0 3 -8 -2 -18 -11
-19 -19 -23 -51 -8 -69 8 -9 38 -11 56 -4 3 1 8 2 13 1 4 0 7 3 7 9 0 5 7 7
15 4 8 -4 15 -1 15 5 0 6 7 11 15 11 8 0 15 5 15 12 0 6 3 8 7 5 3 -4 12 2 20
13 8 11 19 20 24 20 14 0 79 70 79 85 0 7 7 16 16 19 10 4 13 2 8 -7 -5 -8 -2
-7 9 2 9 7 17 10 17 5 0 -5 4 -3 8 4 5 7 21 15 37 18 15 3 37 11 47 19 19 12
19 13 1 18 -23 6 -66 3 -81 -7 -11 -6 -42 -7 -129 -4 -18 1 -29 6 -26 11 4 6
1 7 -7 2 -7 -4 -24 -9 -37 -11 -21 -2 -22 0 -11 14 15 19 29 29 43 32 6 1 19
9 29 18 15 13 17 13 11 2 -6 -11 -3 -10 12 3 11 9 23 14 28 10 4 -5 5 -2 1 5
-4 6 -3 12 2 12 5 0 9 7 9 15 0 11 -10 15 -34 13 -18 -1 -33 -6 -33 -11 0 -4
-4 -6 -9 -3 -4 3 -19 -3 -31 -14 -13 -11 -26 -20 -30 -20 -4 0 -25 -18 -48
-39 -22 -21 -43 -36 -46 -33 -3 3 -6 0 -6 -7 0 -7 -4 -9 -10 -6 -5 3 -10 1
-10 -5 0 -6 -4 -9 -9 -6 -5 3 -14 -1 -21 -9 -7 -8 -16 -12 -21 -9 -5 3 -9 0
-9 -5 0 -6 -3 -10 -7 -9 -5 1 -18 -3 -29 -10 -12 -6 -24 -8 -28 -5 -3 3 -6 1
-6 -6 0 -8 -8 -11 -20 -8 -11 3 -26 -1 -33 -8 -7 -7 -24 -12 -38 -11 -17 1
-24 7 -25 23 -2 39 22 61 74 65 6 1 12 5 12 10 0 5 4 7 9 4 5 -3 14 1 21 9 7
8 19 15 27 15 8 0 12 4 8 9 -3 5 4 12 15 16 11 4 18 10 15 15 -3 5 4 11 15 15
11 3 21 11 21 16 1 5 2 15 3 22 2 17 -25 36 -49 36 -11 0 -34 -7 -51 -14z m26
-55 c0 -5 -8 -10 -17 -10 -15 0 -16 -2 -3 -10 13 -8 13 -10 -2 -10 -9 0 -22
-8 -27 -17 -6 -10 -11 -14 -11 -9 0 6 -7 1 -15 -10 -14 -17 -15 -18 -9 -1 10
29 51 67 82 76 1 1 2 -3 2 -9z m272 -210 c-8 -11 -19 -17 -24 -14 -4 3 -8 -3
-8 -12 0 -10 -3 -14 -7 -11 -3 4 -13 1 -22 -7 -14 -12 -61 -28 -61 -22 0 10
49 54 54 49 3 -4 6 -1 6 5 0 7 7 12 15 12 8 0 15 5 15 11 0 5 5 7 10 4 6 -3
10 -2 10 4 0 6 6 8 14 5 12 -5 12 -8 -2 -24z"/>
<path d="M3514 1088 c-5 -7 -2 -8 7 -3 10 6 11 5 3 -4 -6 -7 -42 -14 -80 -16
-38 -2 -84 -6 -102 -9 -22 -4 -35 -1 -38 8 -3 8 -16 13 -30 11 -13 -1 -24 2
-24 6 0 13 -34 11 -48 -3 -7 -7 -12 -8 -12 -4 0 14 -85 -99 -86 -114 0 -8 -5
-26 -11 -40 -16 -38 -7 -82 23 -106 26 -21 37 -21 99 3 22 9 55 30 51 34 -2 2
2 10 10 17 8 7 14 9 14 5 0 -4 11 10 24 32 13 22 22 43 20 47 -3 5 -1 8 5 8 6
0 8 6 5 13 -6 16 19 39 38 36 7 -2 24 3 37 10 13 7 21 8 17 3 -7 -11 19 -10
30 1 27 26 31 -10 7 -56 -9 -18 -19 -43 -21 -57 -2 -13 -8 -30 -14 -37 -6 -7
-7 -13 -2 -13 5 0 2 -5 -6 -10 -9 -6 -11 -10 -3 -10 7 0 10 -6 7 -14 -3 -9 4
-15 20 -18 20 -4 27 0 37 25 7 16 12 35 12 43 0 8 4 14 9 14 5 0 6 5 3 10 -3
6 -1 10 6 10 7 0 10 3 6 6 -7 7 55 70 66 66 4 -1 7 3 7 9 0 5 4 8 9 5 5 -4 11
-3 13 1 1 5 22 18 46 30 23 12 39 16 35 10 -3 -6 8 -1 25 12 18 12 32 24 32
26 0 10 -115 -7 -122 -18 -4 -7 -8 -9 -8 -4 0 4 -13 1 -29 -8 -17 -8 -32 -11
-35 -6 -3 5 1 12 10 15 15 6 15 8 -1 26 -20 22 -50 26 -61 8z m-235 -65 c6
-14 7 -23 1 -23 -5 0 -7 -7 -4 -15 4 -8 -1 -17 -10 -21 -9 -3 -13 -10 -10 -15
3 -5 0 -9 -6 -9 -6 0 -9 -4 -6 -9 9 -14 -56 -76 -82 -78 -20 -3 -22 1 -16 25
4 15 11 28 15 30 4 2 5 10 2 18 -3 8 0 14 7 14 6 0 9 4 6 9 -3 5 5 20 19 35
13 14 21 26 18 26 -3 0 1 8 10 18 23 25 43 23 56 -5z"/>
<path d="M423 23 c9 -2 25 -2 35 0 9 3 1 5 -18 5 -19 0 -27 -2 -17 -5z"/>
<path d="M488 23 c7 -3 16 -2 19 1 4 3 -2 6 -13 5 -11 0 -14 -3 -6 -6z"/>
</g>
</svg>
